<?xml version="1.0" encoding="iso-8859-1"?>
<!-- Generator: Adobe Illustrator 19.0.0, SVG Export Plug-In . SVG Version: 6.00 Build 0)  -->
<svg version="1.1" id="Layer_1" xmlns="http://www.w3.org/2000/svg" xmlns:xlink="http://www.w3.org/1999/xlink" x="0px" y="0px"
	 viewBox="0 0 511.999 511.999" style="enable-background:new 0 0 511.999 511.999;" xml:space="preserve">
<g>
	<path style="fill:#9EC6D8;" d="M321.782,296.929c-1.882,5.77-8.085,8.925-13.857,7.044l-30.481-9.933
		c-5.771-1.882-8.926-8.085-7.044-13.857l1.987-6.096c1.88-5.773,8.084-8.927,13.855-7.045l30.482,9.931
		c5.772,1.882,8.925,8.087,7.044,13.857L321.782,296.929z"/>
	<path style="fill:#9EC6D8;" d="M172.653,335.649c1.705,5.231,7.329,8.091,12.561,6.385l27.632-9.004
		c5.233-1.706,8.092-7.331,6.385-12.562l-1.8-5.525c-1.705-5.233-7.329-8.092-12.561-6.387l-27.632,9.004
		c-5.234,1.706-8.092,7.331-6.387,12.563L172.653,335.649z"/>
</g>
<path style="fill:#DD2234;" d="M240.542,242.111l16.402-29.986c-4.847-8.862-38.735-70.818-43.126-78.846
	c-10.21-18.665-12.581-39.5-8.256-58.744c-27.604-0.668-54.606,13.716-68.77,39.611l-6.619,12.101l-12.478-5.877
	c-38.082-17.937-83.49-1.608-101.427,36.474c-17.936,38.08-1.608,83.49,36.474,101.426c6.337,2.984,119.459,56.265,125.314,59.022
	l25.996-8.47l24.692-45.143"/>
<path style="fill:#EF2235;" d="M404.169,235.068c8.796-4.143,44.155-20.797,49.887-23.496
	c42.009-19.787,60.021-69.877,40.236-111.885c-19.788-42.008-69.878-60.021-111.886-40.235l-13.765,6.483l-7.302-13.347
	c-22.284-40.74-73.369-55.699-114.107-33.416c-40.739,22.282-55.698,73.367-33.415,114.107
	c3.71,6.783,69.932,127.849,73.327,134.058l28.676,9.345l64.125-30.204"/>
<path style="fill:#FC3842;" d="M382.406,59.452l-13.765,6.483c-8.031-14.68-19.98-42.135-56.306-53.329
	c-64.8,77.38-40.43,196.577,52.174,241.142c8.44-3.975,81.091-38.195,89.546-42.176c42.009-19.787,60.021-69.877,40.236-111.885
	C474.504,57.68,424.413,39.667,382.406,59.452z"/>
<path style="fill:#C6122C;" d="M52.352,120.558c-57.597,27.491-57.891,110.26,0.389,137.711
	c6.337,2.984,119.459,56.265,125.314,59.022l25.996-8.47c2.495-4.56,24.25-44.335,26.828-49.048
	C141.199,273.019,60.891,208.109,52.352,120.558z"/>
<path style="fill:#231F20;" d="M502.72,95.659c-21.719-46.107-76.9-65.952-123.006-44.236l-6.922,3.26l-3.673-6.711
	C329.674-24.146,222.817-12.344,199.47,65.882c-29.263,1.506-55.603,17.874-69.81,43.845l-2.987,5.463l-5.63-2.653
	c-42.172-19.86-92.647-1.717-112.515,40.462c-19.864,42.174-1.714,92.646,40.463,112.513l115.015,54.172
	c-3.332,7.293-0.968,12.498,1.038,18.646c3.114,9.548,13.327,14.676,22.795,11.586l8.518-2.776
	c5.682,8.517,15.816,28.83,0.789,49.313c-23.658,32.251-44.792,70.28,4.234,113.524c1.538,1.354,3.445,2.022,5.347,2.022
	c7.399,0,10.946-9.216,5.351-14.151c-38.952-34.356-24.644-60.814-1.893-91.828c17.344-23.641,10.992-48.584,2.058-64.055
	c3.625-1.181,10.039-2.622,13.834-10.078c3.839-7.553,1.257-13.232-0.734-19.341c-1.443-4.43-4.469-7.986-8.325-10.155
	l19.082-34.886c2.143-3.919,0.705-8.832-3.214-10.974c-3.914-2.141-8.83-0.705-10.975,3.214l-23.23,42.472l-19.983,6.511
	L55.881,250.88c-34.109-16.064-48.786-56.883-32.723-90.991c16.065-34.108,56.887-48.787,90.992-32.722l12.518,5.895
	c3.873,1.821,8.488,0.316,10.541-3.434l6.64-12.141c10.809-19.762,30.306-32.661,52.287-35.123
	c-2.134,19.31,1.971,38.185,10.798,54.319l41.142,75.22l-14.333,26.202c-2.142,3.919-0.702,8.831,3.215,10.975
	c3.92,2.143,8.832,0.705,10.974-3.214l9.362-17.114l17.325,31.675c-7.994,4.051-9.336,10.563-11.515,17.247
	c-3.266,10.017,2.229,20.828,12.25,24.096l4.889,1.593c-10.636,28.135,1.233,56.99,21.969,79.421
	c41.288,44.665-11.51,66.145-20.712,96.199c-3.503,11.432,0.127,21.881,10.787,31.057c1.527,1.315,3.403,1.959,5.273,1.959
	c7.431,0,10.979-9.307,5.279-14.214c-10.814-9.31-7.985-15.212,7.807-34.473c8.864-10.809,18.909-23.061,22.297-38.088
	c4.028-17.862-2.14-35.335-18.856-53.417c-27.25-29.48-22.552-53.319-18.47-63.435c11.054,3.602,12.434,4.306,16.241,4.306
	c8.293,0,15.597-5.302,18.169-13.195l1.993-6.116c1.635-5.015,1.074-10.229-1.151-14.595l53.268-25.091
	c4.04-1.904,5.772-6.722,3.869-10.763c-1.901-4.037-6.719-5.773-10.76-3.869l-61.428,28.935l-22.671-7.388l-49.676-90.818
	c-29.038-53.086-20.875-38.158-22.456-41.065C188.945,69.662,244.203,0.041,309.46,19.141c33.669,9.862,44.578,34.96,52.796,49.985
	c2.054,3.751,6.67,5.257,10.541,3.433l13.809-6.504c38.041-17.915,83.565-1.548,101.483,36.494
	c17.917,38.04,1.545,83.566-36.492,101.482l-50.051,23.574c-4.04,1.902-5.772,6.72-3.869,10.76
	c1.901,4.039,6.718,5.772,10.761,3.871l50.046-23.571C504.593,196.946,524.437,141.766,502.72,95.659z M182.234,334.638
	c-1.784,0-1.825-1.355-3.621-6.864c-0.327-1.002,0.225-2.083,1.225-2.409c5.77-1.88,21.89-7.134,27.721-9.034
	c0.977-0.321,2.069,0.19,2.408,1.226c1.839,5.644,2.203,6.001,1.694,7c-0.164,0.322-0.489,0.749-1.112,0.951
	C210.105,325.652,182.696,334.638,182.234,334.638z M316.645,288.357c-1.943,5.963-2.103,8.149-4.786,8.149
	c-0.701,0,1.161,0.528-31.491-10.113c-1.542-0.502-2.388-2.167-1.885-3.709c2.218-6.804,2.177-9.147,6.586-7.711
	c1.088,0.359,28.692,9.348,29.691,9.674C316.302,285.151,317.147,286.815,316.645,288.357z"/>
<g>
</g>
<g>
</g>
<g>
</g>
<g>
</g>
<g>
</g>
<g>
</g>
<g>
</g>
<g>
</g>
<g>
</g>
<g>
</g>
<g>
</g>
<g>
</g>
<g>
</g>
<g>
</g>
<g>
</g>
</svg>
