<?xml version="1.0" encoding="iso-8859-1"?>
<!-- Generator: Adobe Illustrator 19.0.0, SVG Export Plug-In . SVG Version: 6.00 Build 0)  -->
<svg xmlns="http://www.w3.org/2000/svg" xmlns:xlink="http://www.w3.org/1999/xlink" version="1.1" id="Layer_1" x="0px" y="0px" viewBox="0 0 512.001 512.001" style="enable-background:new 0 0 512.001 512.001;" xml:space="preserve" width="512px" height="512px">
<g>
	<g>
		<g>
			<path d="M366.905,365.071l87.902-85.683c6.087-5.935,8.236-14.643,5.61-22.729c-2.629-8.085-9.486-13.866-17.898-15.087     l-55.879-8.12c-4.413-0.647-8.521,2.419-9.161,6.837c-0.643,4.419,2.418,8.521,6.837,9.163l55.879,8.12     c2.278,0.33,4.135,1.896,4.847,4.083c0.711,2.19,0.129,4.548-1.519,6.154l-90.947,88.65c-1.905,1.858-2.773,4.533-2.323,7.155     l21.469,125.178c0.389,2.268-0.527,4.518-2.387,5.869c-1.816,1.318-4.339,1.502-6.322,0.459l-112.414-59.101     c-2.355-1.237-5.169-1.237-7.524,0l-112.414,59.101c-2.038,1.07-4.46,0.893-6.322-0.458c-1.861-1.353-2.775-3.602-2.388-5.87     l21.47-125.177c0.45-2.622-0.42-5.297-2.324-7.155l-90.946-88.649c-1.648-1.607-2.229-3.966-1.52-6.155     c0.712-2.188,2.567-3.753,4.846-4.083l125.684-18.263c2.633-0.382,4.91-2.036,6.087-4.422l56.209-113.891     c1.019-2.063,3.08-3.345,5.382-3.345s4.364,1.281,5.383,3.345l56.207,113.89c1.178,2.385,3.453,4.039,6.088,4.422l42.395,6.16     c4.405,0.641,8.52-2.418,9.161-6.837c0.643-4.418-2.418-8.521-6.837-9.162l-38.19-5.549l-54.326-110.077     c-3.761-7.624-11.379-12.359-19.88-12.359c-8.501,0-16.119,4.736-19.879,12.358l-54.328,110.078L51.149,241.572     c-8.412,1.222-15.27,7.003-17.897,15.089c-2.626,8.084-0.478,16.792,5.61,22.728l87.902,85.682l-20.75,120.989     c-1.438,8.377,1.94,16.685,8.818,21.683c3.888,2.823,8.434,4.258,13.011,4.258c3.523,0,7.065-0.85,10.337-2.569l108.654-57.122     l108.657,57.124c3.17,1.663,6.735,2.543,10.312,2.543c4.714,0,9.219-1.464,13.034-4.234c6.876-4.998,10.256-13.307,8.817-21.683     L366.905,365.071z" fill="#FFFFFF"/>
			<path d="M389.428,202.313c0.706-5.179,7.78-13.565,29.816-12.165c1.355,0.086,2.651,0.128,3.901,0.128     c27.699-0.002,30.054-20.639,31.63-34.498c0.874-7.677,1.699-14.928,5.275-20.053c2.553-3.662,1.653-8.701-2.007-11.254     c-3.662-2.552-8.701-1.655-11.255,2.006c-5.914,8.481-7.063,18.57-8.076,27.473c-1.746,15.343-2.41,21.087-18.438,20.063     c-17.664-1.127-30.86,2.656-39.232,11.242c-6.854,7.029-7.644,14.722-7.711,15.576l16.117,1.275     C389.449,202.106,389.447,202.179,389.428,202.313z" fill="#FFFFFF"/>
			<path d="M286.775,91.17c0.16-0.086,0.254-0.119,0.254-0.119l6.521,14.795c7.934-3.496,19.945-17.192,8.617-43.999     c-4.135-9.789-2.125-11.131,9.25-16.618c11.11-5.361,27.902-13.462,23.471-38.551c-0.775-4.397-4.962-7.327-9.367-6.555     c-4.397,0.777-7.33,4.971-6.554,9.367c2.205,12.48-3.177,15.678-14.576,21.177c-10.237,4.939-27.37,13.205-17.116,37.474     C293.459,82.779,289.871,89.505,286.775,91.17z" fill="#FFFFFF"/>
			<path d="M80.268,84.749c12.314,2.796,14.576,3.653,12.74,14.12c-5.028,28.665,9.75,39.319,18.266,40.946     c0.513,0.099,1.023,0.146,1.527,0.146c3.802,0,7.19-2.695,7.931-6.567c0.838-4.386-2.037-8.62-6.423-9.458     c-0.089-0.017-8.827-2.6-5.376-22.273c4.549-25.95-14.001-30.163-25.085-32.68c-12.341-2.803-18.303-4.712-18.953-17.369     c-0.229-4.458-4.006-7.894-8.488-7.659c-4.458,0.229-7.888,4.029-7.658,8.488C50.056,77.888,68.237,82.016,80.268,84.749z" fill="#FFFFFF"/>
			<path d="M105.239,181.113c0,6.121,2.382,11.874,6.71,16.201c4.328,4.328,10.081,6.711,16.201,6.711     c6.12,0,11.874-2.383,16.202-6.71c4.328-4.328,6.712-10.081,6.712-16.202s-2.384-11.874-6.711-16.202     c-4.329-4.328-10.082-6.711-16.203-6.711s-11.873,2.383-16.201,6.711C107.621,169.239,105.239,174.992,105.239,181.113z      M123.382,176.342c1.273-1.273,2.968-1.975,4.769-1.975c1.802,0,3.495,0.702,4.77,1.976c1.275,1.274,1.978,2.968,1.978,4.77     s-0.702,3.494-1.976,4.769c-1.275,1.274-2.969,1.976-4.772,1.976c-1.8,0-3.494-0.702-4.77-1.976     c-1.273-1.273-1.975-2.967-1.975-4.769C121.405,179.312,122.106,177.618,123.382,176.342z" fill="#FFFFFF"/>
			<path d="M315.285,129.189c-8.933,8.934-8.933,23.47,0.001,32.404c4.328,4.328,10.082,6.71,16.201,6.71     c6.119,0,11.874-2.382,16.202-6.71c8.933-8.934,8.933-23.47,0-32.403c-4.327-4.328-10.083-6.711-16.202-6.711     C325.368,122.479,319.613,124.86,315.285,129.189z M336.254,150.16c-1.273,1.273-2.967,1.974-4.769,1.974     c-1.802,0-3.495-0.701-4.77-1.974c-2.63-2.63-2.63-6.91-0.001-9.539c1.274-1.274,2.968-1.975,4.771-1.975     c1.801,0,3.494,0.701,4.769,1.974C338.884,143.25,338.884,147.53,336.254,150.16z" fill="#FFFFFF"/>
			<path d="M75.695,336.926c-4.329-4.326-10.082-6.709-16.202-6.709c-6.12,0-11.873,2.383-16.201,6.71     c-8.934,8.935-8.934,23.47,0,32.404c4.327,4.328,10.08,6.712,16.201,6.712s11.874-2.384,16.203-6.711     C84.629,360.396,84.629,345.862,75.695,336.926z M64.262,357.898c-1.273,1.274-2.967,1.977-4.77,1.977     c-1.8,0-3.494-0.702-4.769-1.977c-2.631-2.629-2.631-6.909-0.001-9.538c1.273-1.273,2.967-1.975,4.77-1.975     s3.496,0.701,4.77,1.975C66.893,350.989,66.893,355.269,64.262,357.898z" fill="#FFFFFF"/>
			<path d="M473.15,336.926c-4.329-4.326-10.082-6.709-16.201-6.709c-6.121,0-11.873,2.383-16.202,6.71     c-8.933,8.935-8.933,23.47,0,32.404c4.328,4.328,10.081,6.712,16.202,6.712c6.12,0,11.873-2.384,16.202-6.711     C482.084,360.396,482.084,345.862,473.15,336.926z M461.719,357.898c-1.274,1.274-2.968,1.977-4.77,1.977     c-1.801,0-3.495-0.702-4.769-1.977c-2.631-2.629-2.631-6.909-0.002-9.538c1.274-1.273,2.968-1.975,4.771-1.975     c1.801,0,3.496,0.701,4.77,1.975C464.349,350.989,464.349,355.269,461.719,357.898z" fill="#FFFFFF"/>
			<path d="M186.892,93.245c6.12,0,11.873-2.383,16.201-6.711c4.327-4.328,6.711-10.082,6.711-16.202     c0-6.121-2.384-11.874-6.711-16.2c-4.328-4.329-10.081-6.712-16.201-6.712c-6.122,0-11.874,2.383-16.202,6.711     c-4.328,4.327-6.712,10.08-6.712,16.201s2.384,11.874,6.711,16.202C175.018,90.861,180.77,93.245,186.892,93.245z      M182.122,65.562c1.273-1.274,2.968-1.975,4.771-1.975c1.8,0,3.493,0.701,4.769,1.976c1.273,1.273,1.977,2.967,1.977,4.769     c0,1.802-0.703,3.495-1.977,4.771c-1.274,1.273-2.968,1.975-4.769,1.975c-1.802,0-3.496-0.702-4.771-1.976     c-1.274-1.274-1.976-2.967-1.976-4.77C180.146,68.531,180.848,66.836,182.122,65.562z" fill="#FFFFFF"/>
			<circle cx="64.409" cy="160.22" r="10.496" fill="#FFFFFF"/>
			<circle cx="411.39" cy="374.115" r="10.496" fill="#FFFFFF"/>
			<circle cx="73.75" cy="439.343" r="10.497" fill="#FFFFFF"/>
			<path d="M387.929,148.951c2.107,0,4.213-0.819,5.799-2.448l11.23-11.553c3.111-3.201,3.039-8.319-0.162-11.431     c-3.199-3.112-8.318-3.039-11.431,0.162l-11.23,11.552c-3.111,3.201-3.04,8.319,0.162,11.431     C383.868,148.192,385.899,148.951,387.929,148.951z" fill="#FFFFFF"/>
			<path d="M148.822,136.182l14.937,6.04c0.993,0.401,2.02,0.591,3.027,0.591c3.197,0,6.227-1.909,7.497-5.056     c1.674-4.139-0.325-8.851-4.464-10.524l-14.938-6.04c-4.146-1.676-8.851,0.326-10.524,4.464     C142.684,129.797,144.683,134.508,148.822,136.182z" fill="#FFFFFF"/>
			<path d="M96.033,392.673l-14.938-6.04c-4.146-1.674-8.851,0.325-10.524,4.464c-1.673,4.14,0.326,8.852,4.465,10.524l14.938,6.041     c0.993,0.4,2.019,0.591,3.026,0.591c3.197,0,6.227-1.908,7.497-5.056C102.171,399.059,100.172,394.347,96.033,392.673z" fill="#FFFFFF"/>
			<path d="M436.945,420.284l-14.937-6.04c-4.146-1.673-8.852,0.326-10.524,4.465c-1.674,4.14,0.325,8.852,4.464,10.524l14.938,6.04     c0.993,0.4,2.019,0.592,3.027,0.592c3.196,0,6.226-1.91,7.497-5.057C443.083,426.669,441.085,421.957,436.945,420.284z" fill="#FFFFFF"/>
		</g>
	</g>
</g>
<g>
</g>
<g>
</g>
<g>
</g>
<g>
</g>
<g>
</g>
<g>
</g>
<g>
</g>
<g>
</g>
<g>
</g>
<g>
</g>
<g>
</g>
<g>
</g>
<g>
</g>
<g>
</g>
<g>
</g>
</svg>
