<?xml version="1.0" encoding="iso-8859-1"?>
<!-- Generator: Adobe Illustrator 19.1.0, SVG Export Plug-In . SVG Version: 6.00 Build 0)  -->
<svg xmlns="http://www.w3.org/2000/svg" xmlns:xlink="http://www.w3.org/1999/xlink" version="1.1" id="Capa_1" x="0px" y="0px" viewBox="0 0 36.824 36.824" style="enable-background:new 0 0 36.824 36.824;" xml:space="preserve" width="512px" height="512px">
<g id="User">
	<path d="M18.094,17.307c-4.771,0-8.652-3.882-8.652-8.653S13.323,0,18.094,0s8.652,3.882,8.652,8.653S22.864,17.307,18.094,17.307z    M18.094,0.801c-4.329,0-7.852,3.522-7.852,7.853s3.522,7.853,7.852,7.853s7.852-3.522,7.852-7.853S22.423,0.801,18.094,0.801z" fill="#FFFFFF"/>
	<path d="M16.759,36.824c-3.9,0-7.422-0.241-9.914-0.678c-3.146-0.552-4.677-1.393-4.677-2.57c0-8.027,7.287-14.558,16.244-14.558   s16.244,6.53,16.244,14.558C34.656,36.24,21.737,36.824,16.759,36.824z M18.412,19.819c-8.516,0-15.443,6.171-15.443,13.757   c0,1.217,4.736,2.448,13.79,2.448c10.278,0,17.097-1.474,17.097-2.448C33.855,25.99,26.928,19.819,18.412,19.819z" fill="#FFFFFF"/>
</g>
<g>
</g>
<g>
</g>
<g>
</g>
<g>
</g>
<g>
</g>
<g>
</g>
<g>
</g>
<g>
</g>
<g>
</g>
<g>
</g>
<g>
</g>
<g>
</g>
<g>
</g>
<g>
</g>
<g>
</g>
</svg>
